<mxfile host="app.diagrams.net" modified="2023-12-08T01:39:27.934Z" agent="Mozilla/5.0 (Windows NT 10.0; Win64; x64) AppleWebKit/537.36 (KHTML, like Gecko) Chrome/119.0.0.0 Safari/537.36" etag="1bOXGIqrgqUskTVgpyhO" version="22.1.7" type="device">
  <diagram name="Page-1" id="b5b7bab2-c9e2-2cf4-8b2a-24fd1a2a6d21">
    <mxGraphModel dx="720" dy="965" grid="1" gridSize="10" guides="1" tooltips="1" connect="1" arrows="1" fold="1" page="1" pageScale="1" pageWidth="827" pageHeight="1169" background="none" math="0" shadow="0">
      <root>
        <mxCell id="0" />
        <mxCell id="1" parent="0" />
        <mxCell id="o0BFgWEYsugh6mhAWSTL-1" value="Borrower" style="shape=umlLifeline;perimeter=lifelinePerimeter;whiteSpace=wrap;html=1;container=1;dropTarget=0;collapsible=0;recursiveResize=0;outlineConnect=0;portConstraint=eastwest;newEdgeStyle={&quot;curved&quot;:0,&quot;rounded&quot;:0};participant=umlActor;spacingTop=36;verticalAlign=top;" vertex="1" parent="1">
          <mxGeometry x="30" y="40" width="20" height="1600" as="geometry" />
        </mxCell>
        <mxCell id="o0BFgWEYsugh6mhAWSTL-8" value="" style="html=1;points=[[0,0,0,0,5],[0,1,0,0,-5],[1,0,0,0,5],[1,1,0,0,-5]];perimeter=orthogonalPerimeter;outlineConnect=0;targetShapes=umlLifeline;portConstraint=eastwest;newEdgeStyle={&quot;curved&quot;:0,&quot;rounded&quot;:0};" vertex="1" parent="o0BFgWEYsugh6mhAWSTL-1">
          <mxGeometry x="5" y="60" width="10" height="1520" as="geometry" />
        </mxCell>
        <mxCell id="o0BFgWEYsugh6mhAWSTL-2" value="Librarian" style="shape=umlLifeline;perimeter=lifelinePerimeter;whiteSpace=wrap;html=1;container=1;dropTarget=0;collapsible=0;recursiveResize=0;outlineConnect=0;portConstraint=eastwest;newEdgeStyle={&quot;curved&quot;:0,&quot;rounded&quot;:0};participant=umlActor;spacingTop=36;verticalAlign=top;" vertex="1" parent="1">
          <mxGeometry x="190" y="40" width="20" height="1600" as="geometry" />
        </mxCell>
        <mxCell id="o0BFgWEYsugh6mhAWSTL-9" value="" style="html=1;points=[[0,0,0,0,5],[0,1,0,0,-5],[1,0,0,0,5],[1,1,0,0,-5]];perimeter=orthogonalPerimeter;outlineConnect=0;targetShapes=umlLifeline;portConstraint=eastwest;newEdgeStyle={&quot;curved&quot;:0,&quot;rounded&quot;:0};" vertex="1" parent="o0BFgWEYsugh6mhAWSTL-2">
          <mxGeometry x="5" y="100" width="10" height="1460" as="geometry" />
        </mxCell>
        <mxCell id="o0BFgWEYsugh6mhAWSTL-3" value="&lt;u&gt;app: LibraryApplication&lt;/u&gt;" style="shape=umlLifeline;perimeter=lifelinePerimeter;whiteSpace=wrap;html=1;container=1;dropTarget=0;collapsible=0;recursiveResize=0;outlineConnect=0;portConstraint=eastwest;newEdgeStyle={&quot;curved&quot;:0,&quot;rounded&quot;:0};" vertex="1" parent="1">
          <mxGeometry x="310" y="40" width="100" height="1600" as="geometry" />
        </mxCell>
        <mxCell id="o0BFgWEYsugh6mhAWSTL-12" value="" style="html=1;points=[[0,0,0,0,5],[0,1,0,0,-5],[1,0,0,0,5],[1,1,0,0,-5]];perimeter=orthogonalPerimeter;outlineConnect=0;targetShapes=umlLifeline;portConstraint=eastwest;newEdgeStyle={&quot;curved&quot;:0,&quot;rounded&quot;:0};" vertex="1" parent="o0BFgWEYsugh6mhAWSTL-3">
          <mxGeometry x="45" y="120" width="10" height="1420" as="geometry" />
        </mxCell>
        <mxCell id="o0BFgWEYsugh6mhAWSTL-18" value="" style="html=1;points=[[0,0,0,0,5],[0,1,0,0,-5],[1,0,0,0,5],[1,1,0,0,-5]];perimeter=orthogonalPerimeter;outlineConnect=0;targetShapes=umlLifeline;portConstraint=eastwest;newEdgeStyle={&quot;curved&quot;:0,&quot;rounded&quot;:0};" vertex="1" parent="o0BFgWEYsugh6mhAWSTL-3">
          <mxGeometry x="50" y="240" width="10" height="40" as="geometry" />
        </mxCell>
        <mxCell id="o0BFgWEYsugh6mhAWSTL-27" value="" style="html=1;points=[[0,0,0,0,5],[0,1,0,0,-5],[1,0,0,0,5],[1,1,0,0,-5]];perimeter=orthogonalPerimeter;outlineConnect=0;targetShapes=umlLifeline;portConstraint=eastwest;newEdgeStyle={&quot;curved&quot;:0,&quot;rounded&quot;:0};" vertex="1" parent="o0BFgWEYsugh6mhAWSTL-3">
          <mxGeometry x="50" y="440" width="10" height="40" as="geometry" />
        </mxCell>
        <mxCell id="o0BFgWEYsugh6mhAWSTL-46" value="" style="html=1;points=[[0,0,0,0,5],[0,1,0,0,-5],[1,0,0,0,5],[1,1,0,0,-5]];perimeter=orthogonalPerimeter;outlineConnect=0;targetShapes=umlLifeline;portConstraint=eastwest;newEdgeStyle={&quot;curved&quot;:0,&quot;rounded&quot;:0};" vertex="1" parent="o0BFgWEYsugh6mhAWSTL-3">
          <mxGeometry x="50" y="740" width="10" height="40" as="geometry" />
        </mxCell>
        <mxCell id="o0BFgWEYsugh6mhAWSTL-54" value="" style="html=1;points=[[0,0,0,0,5],[0,1,0,0,-5],[1,0,0,0,5],[1,1,0,0,-5]];perimeter=orthogonalPerimeter;outlineConnect=0;targetShapes=umlLifeline;portConstraint=eastwest;newEdgeStyle={&quot;curved&quot;:0,&quot;rounded&quot;:0};" vertex="1" parent="o0BFgWEYsugh6mhAWSTL-3">
          <mxGeometry x="50" y="920" width="10" height="40" as="geometry" />
        </mxCell>
        <mxCell id="o0BFgWEYsugh6mhAWSTL-4" value="&lt;u&gt;bookCollection: {Book}&lt;/u&gt;" style="shape=umlLifeline;perimeter=lifelinePerimeter;whiteSpace=wrap;html=1;container=1;dropTarget=0;collapsible=0;recursiveResize=0;outlineConnect=0;portConstraint=eastwest;newEdgeStyle={&quot;curved&quot;:0,&quot;rounded&quot;:0};" vertex="1" parent="1">
          <mxGeometry x="470" y="40" width="100" height="1600" as="geometry" />
        </mxCell>
        <mxCell id="o0BFgWEYsugh6mhAWSTL-15" value="" style="html=1;points=[[0,0,0,0,5],[0,1,0,0,-5],[1,0,0,0,5],[1,1,0,0,-5]];perimeter=orthogonalPerimeter;outlineConnect=0;targetShapes=umlLifeline;portConstraint=eastwest;newEdgeStyle={&quot;curved&quot;:0,&quot;rounded&quot;:0};" vertex="1" parent="o0BFgWEYsugh6mhAWSTL-4">
          <mxGeometry x="45" y="140" width="10" height="40" as="geometry" />
        </mxCell>
        <mxCell id="o0BFgWEYsugh6mhAWSTL-5" value="&lt;u&gt;book: Book&lt;/u&gt;" style="shape=umlLifeline;perimeter=lifelinePerimeter;whiteSpace=wrap;html=1;container=1;dropTarget=0;collapsible=0;recursiveResize=0;outlineConnect=0;portConstraint=eastwest;newEdgeStyle={&quot;curved&quot;:0,&quot;rounded&quot;:0};" vertex="1" parent="1">
          <mxGeometry x="630" y="40" width="100" height="1600" as="geometry" />
        </mxCell>
        <mxCell id="o0BFgWEYsugh6mhAWSTL-37" value="" style="html=1;points=[[0,0,0,0,5],[0,1,0,0,-5],[1,0,0,0,5],[1,1,0,0,-5]];perimeter=orthogonalPerimeter;outlineConnect=0;targetShapes=umlLifeline;portConstraint=eastwest;newEdgeStyle={&quot;curved&quot;:0,&quot;rounded&quot;:0};" vertex="1" parent="o0BFgWEYsugh6mhAWSTL-5">
          <mxGeometry x="45" y="520" width="10" height="40" as="geometry" />
        </mxCell>
        <mxCell id="o0BFgWEYsugh6mhAWSTL-43" value="" style="html=1;points=[[0,0,0,0,5],[0,1,0,0,-5],[1,0,0,0,5],[1,1,0,0,-5]];perimeter=orthogonalPerimeter;outlineConnect=0;targetShapes=umlLifeline;portConstraint=eastwest;newEdgeStyle={&quot;curved&quot;:0,&quot;rounded&quot;:0};" vertex="1" parent="o0BFgWEYsugh6mhAWSTL-5">
          <mxGeometry x="45" y="640" width="10" height="40" as="geometry" />
        </mxCell>
        <mxCell id="o0BFgWEYsugh6mhAWSTL-61" value="" style="html=1;points=[[0,0,0,0,5],[0,1,0,0,-5],[1,0,0,0,5],[1,1,0,0,-5]];perimeter=orthogonalPerimeter;outlineConnect=0;targetShapes=umlLifeline;portConstraint=eastwest;newEdgeStyle={&quot;curved&quot;:0,&quot;rounded&quot;:0};" vertex="1" parent="o0BFgWEYsugh6mhAWSTL-5">
          <mxGeometry x="45" y="1040" width="10" height="100" as="geometry" />
        </mxCell>
        <mxCell id="o0BFgWEYsugh6mhAWSTL-67" value="" style="html=1;points=[[0,0,0,0,5],[0,1,0,0,-5],[1,0,0,0,5],[1,1,0,0,-5]];perimeter=orthogonalPerimeter;outlineConnect=0;targetShapes=umlLifeline;portConstraint=eastwest;newEdgeStyle={&quot;curved&quot;:0,&quot;rounded&quot;:0};" vertex="1" parent="o0BFgWEYsugh6mhAWSTL-5">
          <mxGeometry x="50" y="1080" width="10" height="40" as="geometry" />
        </mxCell>
        <mxCell id="o0BFgWEYsugh6mhAWSTL-68" value="setLoan(loan: Loan)" style="html=1;align=left;spacingLeft=2;endArrow=block;rounded=0;edgeStyle=orthogonalEdgeStyle;curved=0;rounded=0;entryX=1;entryY=0;entryDx=0;entryDy=5;entryPerimeter=0;" edge="1" target="o0BFgWEYsugh6mhAWSTL-67" parent="o0BFgWEYsugh6mhAWSTL-5">
          <mxGeometry relative="1" as="geometry">
            <mxPoint x="55" y="1060" as="sourcePoint" />
            <Array as="points">
              <mxPoint x="80" y="1060" />
              <mxPoint x="80" y="1085" />
            </Array>
          </mxGeometry>
        </mxCell>
        <mxCell id="o0BFgWEYsugh6mhAWSTL-6" value="&lt;u&gt;borrowerCollection: {Borrower}&lt;/u&gt;" style="shape=umlLifeline;perimeter=lifelinePerimeter;whiteSpace=wrap;html=1;container=1;dropTarget=0;collapsible=0;recursiveResize=0;outlineConnect=0;portConstraint=eastwest;newEdgeStyle={&quot;curved&quot;:0,&quot;rounded&quot;:0};" vertex="1" parent="1">
          <mxGeometry x="790" y="40" width="100" height="1600" as="geometry" />
        </mxCell>
        <mxCell id="o0BFgWEYsugh6mhAWSTL-24" value="" style="html=1;points=[[0,0,0,0,5],[0,1,0,0,-5],[1,0,0,0,5],[1,1,0,0,-5]];perimeter=orthogonalPerimeter;outlineConnect=0;targetShapes=umlLifeline;portConstraint=eastwest;newEdgeStyle={&quot;curved&quot;:0,&quot;rounded&quot;:0};" vertex="1" parent="o0BFgWEYsugh6mhAWSTL-6">
          <mxGeometry x="45" y="330" width="10" height="50" as="geometry" />
        </mxCell>
        <mxCell id="o0BFgWEYsugh6mhAWSTL-7" value="&lt;u&gt;borrower: Borrower&lt;/u&gt;" style="shape=umlLifeline;perimeter=lifelinePerimeter;whiteSpace=wrap;html=1;container=1;dropTarget=0;collapsible=0;recursiveResize=0;outlineConnect=0;portConstraint=eastwest;newEdgeStyle={&quot;curved&quot;:0,&quot;rounded&quot;:0};" vertex="1" parent="1">
          <mxGeometry x="950" y="40" width="100" height="1600" as="geometry" />
        </mxCell>
        <mxCell id="o0BFgWEYsugh6mhAWSTL-40" value="" style="html=1;points=[[0,0,0,0,5],[0,1,0,0,-5],[1,0,0,0,5],[1,1,0,0,-5]];perimeter=orthogonalPerimeter;outlineConnect=0;targetShapes=umlLifeline;portConstraint=eastwest;newEdgeStyle={&quot;curved&quot;:0,&quot;rounded&quot;:0};" vertex="1" parent="o0BFgWEYsugh6mhAWSTL-7">
          <mxGeometry x="45" y="580" width="10" height="40" as="geometry" />
        </mxCell>
        <mxCell id="o0BFgWEYsugh6mhAWSTL-51" value="" style="html=1;points=[[0,0,0,0,5],[0,1,0,0,-5],[1,0,0,0,5],[1,1,0,0,-5]];perimeter=orthogonalPerimeter;outlineConnect=0;targetShapes=umlLifeline;portConstraint=eastwest;newEdgeStyle={&quot;curved&quot;:0,&quot;rounded&quot;:0};" vertex="1" parent="o0BFgWEYsugh6mhAWSTL-7">
          <mxGeometry x="45" y="820" width="10" height="40" as="geometry" />
        </mxCell>
        <mxCell id="o0BFgWEYsugh6mhAWSTL-69" value="" style="html=1;points=[[0,0,0,0,5],[0,1,0,0,-5],[1,0,0,0,5],[1,1,0,0,-5]];perimeter=orthogonalPerimeter;outlineConnect=0;targetShapes=umlLifeline;portConstraint=eastwest;newEdgeStyle={&quot;curved&quot;:0,&quot;rounded&quot;:0};" vertex="1" parent="o0BFgWEYsugh6mhAWSTL-7">
          <mxGeometry x="45" y="1160" width="10" height="100" as="geometry" />
        </mxCell>
        <mxCell id="o0BFgWEYsugh6mhAWSTL-72" value="" style="html=1;points=[[0,0,0,0,5],[0,1,0,0,-5],[1,0,0,0,5],[1,1,0,0,-5]];perimeter=orthogonalPerimeter;outlineConnect=0;targetShapes=umlLifeline;portConstraint=eastwest;newEdgeStyle={&quot;curved&quot;:0,&quot;rounded&quot;:0};" vertex="1" parent="o0BFgWEYsugh6mhAWSTL-7">
          <mxGeometry x="50" y="1200" width="10" height="40" as="geometry" />
        </mxCell>
        <mxCell id="o0BFgWEYsugh6mhAWSTL-73" value="setLoan(loan: Loan)" style="html=1;align=left;spacingLeft=2;endArrow=block;rounded=0;edgeStyle=orthogonalEdgeStyle;curved=0;rounded=0;entryX=1;entryY=0;entryDx=0;entryDy=5;entryPerimeter=0;" edge="1" target="o0BFgWEYsugh6mhAWSTL-72" parent="o0BFgWEYsugh6mhAWSTL-7">
          <mxGeometry relative="1" as="geometry">
            <mxPoint x="55" y="1180" as="sourcePoint" />
            <Array as="points">
              <mxPoint x="80" y="1180" />
              <mxPoint x="80" y="1205" />
            </Array>
          </mxGeometry>
        </mxCell>
        <mxCell id="o0BFgWEYsugh6mhAWSTL-11" value="&lt;div&gt;10.2: 반납일자 고지 및&lt;/div&gt;&lt;div&gt;Book, 회원증을 건넨다.&lt;/div&gt;" style="html=1;verticalAlign=bottom;endArrow=open;dashed=1;endSize=8;curved=0;rounded=0;exitX=0;exitY=1;exitDx=0;exitDy=-5;" edge="1" source="o0BFgWEYsugh6mhAWSTL-9" parent="1" target="o0BFgWEYsugh6mhAWSTL-8">
          <mxGeometry relative="1" as="geometry">
            <mxPoint x="125" y="195" as="targetPoint" />
          </mxGeometry>
        </mxCell>
        <mxCell id="o0BFgWEYsugh6mhAWSTL-10" value="&lt;div&gt;1: borrowerOneBook(&lt;/div&gt;&lt;div&gt;ISBN: long,&lt;/div&gt;&lt;div&gt;name: String)&lt;/div&gt;" style="html=1;verticalAlign=bottom;endArrow=block;curved=0;rounded=0;entryX=0;entryY=0;entryDx=0;entryDy=5;" edge="1" target="o0BFgWEYsugh6mhAWSTL-9" parent="1" source="o0BFgWEYsugh6mhAWSTL-8">
          <mxGeometry x="-0.0032" relative="1" as="geometry">
            <mxPoint x="125" y="125" as="sourcePoint" />
            <mxPoint as="offset" />
          </mxGeometry>
        </mxCell>
        <mxCell id="o0BFgWEYsugh6mhAWSTL-13" value="&lt;div&gt;2: borrowerOneBook(&lt;/div&gt;&lt;div&gt;ISBN: long,&lt;/div&gt;&lt;div&gt;name: String)&lt;/div&gt;" style="html=1;verticalAlign=bottom;endArrow=block;curved=0;rounded=0;entryX=0;entryY=0;entryDx=0;entryDy=5;" edge="1" target="o0BFgWEYsugh6mhAWSTL-12" parent="1" source="o0BFgWEYsugh6mhAWSTL-9">
          <mxGeometry relative="1" as="geometry">
            <mxPoint x="285" y="155" as="sourcePoint" />
          </mxGeometry>
        </mxCell>
        <mxCell id="o0BFgWEYsugh6mhAWSTL-14" value="10.1: isBorrowered: boolean" style="html=1;verticalAlign=bottom;endArrow=open;dashed=1;endSize=8;curved=0;rounded=0;exitX=0;exitY=1;exitDx=0;exitDy=-5;" edge="1" source="o0BFgWEYsugh6mhAWSTL-12" parent="1" target="o0BFgWEYsugh6mhAWSTL-9">
          <mxGeometry x="0.0032" relative="1" as="geometry">
            <mxPoint x="285" y="225" as="targetPoint" />
            <mxPoint as="offset" />
          </mxGeometry>
        </mxCell>
        <mxCell id="o0BFgWEYsugh6mhAWSTL-16" value="3.1: find(ISBN: long)" style="html=1;verticalAlign=bottom;endArrow=block;curved=0;rounded=0;entryX=0;entryY=0;entryDx=0;entryDy=5;" edge="1" target="o0BFgWEYsugh6mhAWSTL-15" parent="1" source="o0BFgWEYsugh6mhAWSTL-12">
          <mxGeometry relative="1" as="geometry">
            <mxPoint x="446" y="185" as="sourcePoint" />
          </mxGeometry>
        </mxCell>
        <mxCell id="o0BFgWEYsugh6mhAWSTL-17" value="3.2: book: Book" style="html=1;verticalAlign=bottom;endArrow=open;dashed=1;endSize=8;curved=0;rounded=0;exitX=0;exitY=1;exitDx=0;exitDy=-5;" edge="1" source="o0BFgWEYsugh6mhAWSTL-15" parent="1" target="o0BFgWEYsugh6mhAWSTL-12">
          <mxGeometry relative="1" as="geometry">
            <mxPoint x="446" y="255" as="targetPoint" />
          </mxGeometry>
        </mxCell>
        <mxCell id="o0BFgWEYsugh6mhAWSTL-19" value="throw new Exception(&quot;책을 찾을 수 없습니다.&quot;)" style="html=1;align=left;spacingLeft=2;endArrow=block;rounded=0;edgeStyle=orthogonalEdgeStyle;curved=0;rounded=0;entryX=1;entryY=0;entryDx=0;entryDy=5;entryPerimeter=0;" edge="1" parent="1" target="o0BFgWEYsugh6mhAWSTL-18">
          <mxGeometry x="0.0053" relative="1" as="geometry">
            <mxPoint x="365" y="260" as="sourcePoint" />
            <Array as="points">
              <mxPoint x="400" y="260" />
              <mxPoint x="400" y="285" />
            </Array>
            <mxPoint as="offset" />
          </mxGeometry>
        </mxCell>
        <mxCell id="o0BFgWEYsugh6mhAWSTL-20" value="" style="group;dropTarget=0;" vertex="1" connectable="0" parent="1">
          <mxGeometry x="260" y="240" width="400" height="100" as="geometry" />
        </mxCell>
        <mxCell id="o0BFgWEYsugh6mhAWSTL-21" value="alt" style="shape=umlFrame;whiteSpace=wrap;html=1;pointerEvents=0;" vertex="1" parent="o0BFgWEYsugh6mhAWSTL-20">
          <mxGeometry width="400" height="100" as="geometry" />
        </mxCell>
        <mxCell id="o0BFgWEYsugh6mhAWSTL-22" value="[!book]" style="text;html=1;align=center;verticalAlign=middle;resizable=0;points=[];autosize=1;strokeColor=none;fillColor=none;" vertex="1" parent="o0BFgWEYsugh6mhAWSTL-20">
          <mxGeometry y="34.99857142857143" width="60" height="30" as="geometry" />
        </mxCell>
        <mxCell id="o0BFgWEYsugh6mhAWSTL-25" value="3.3: find(name: String)" style="html=1;verticalAlign=bottom;endArrow=block;curved=0;rounded=0;entryX=0;entryY=0;entryDx=0;entryDy=5;" edge="1" target="o0BFgWEYsugh6mhAWSTL-24" parent="1" source="o0BFgWEYsugh6mhAWSTL-12">
          <mxGeometry relative="1" as="geometry">
            <mxPoint x="765" y="375" as="sourcePoint" />
          </mxGeometry>
        </mxCell>
        <mxCell id="o0BFgWEYsugh6mhAWSTL-26" value="3.4: borrower: Borrower" style="html=1;verticalAlign=bottom;endArrow=open;dashed=1;endSize=8;curved=0;rounded=0;exitX=0;exitY=1;exitDx=0;exitDy=-5;" edge="1" source="o0BFgWEYsugh6mhAWSTL-24" parent="1" target="o0BFgWEYsugh6mhAWSTL-12">
          <mxGeometry relative="1" as="geometry">
            <mxPoint x="765" y="445" as="targetPoint" />
          </mxGeometry>
        </mxCell>
        <mxCell id="o0BFgWEYsugh6mhAWSTL-28" value="throw new Exception(&quot;이용자를 찾을 수 없습니다.&quot;)" style="html=1;align=left;spacingLeft=2;endArrow=block;rounded=0;edgeStyle=orthogonalEdgeStyle;curved=0;rounded=0;entryX=1;entryY=0;entryDx=0;entryDy=5;entryPerimeter=0;" edge="1" target="o0BFgWEYsugh6mhAWSTL-27" parent="1">
          <mxGeometry x="0.0038" relative="1" as="geometry">
            <mxPoint x="365" y="460" as="sourcePoint" />
            <Array as="points">
              <mxPoint x="400" y="460" />
              <mxPoint x="400" y="485" />
            </Array>
            <mxPoint as="offset" />
          </mxGeometry>
        </mxCell>
        <mxCell id="o0BFgWEYsugh6mhAWSTL-29" value="" style="group;dropTarget=0;" vertex="1" connectable="0" parent="1">
          <mxGeometry x="260" y="440" width="400" height="100" as="geometry" />
        </mxCell>
        <mxCell id="o0BFgWEYsugh6mhAWSTL-30" value="alt" style="shape=umlFrame;whiteSpace=wrap;html=1;pointerEvents=0;" vertex="1" parent="o0BFgWEYsugh6mhAWSTL-29">
          <mxGeometry width="400" height="100" as="geometry" />
        </mxCell>
        <mxCell id="o0BFgWEYsugh6mhAWSTL-31" value="[!borrower]" style="text;html=1;align=center;verticalAlign=middle;resizable=0;points=[];autosize=1;strokeColor=none;fillColor=none;" vertex="1" parent="o0BFgWEYsugh6mhAWSTL-29">
          <mxGeometry x="-10" y="34.99857142857143" width="80" height="30" as="geometry" />
        </mxCell>
        <mxCell id="o0BFgWEYsugh6mhAWSTL-39" value="void" style="html=1;verticalAlign=bottom;endArrow=open;dashed=1;endSize=8;curved=0;rounded=0;exitX=0;exitY=1;exitDx=0;exitDy=-5;" edge="1" source="o0BFgWEYsugh6mhAWSTL-37" parent="1" target="o0BFgWEYsugh6mhAWSTL-12">
          <mxGeometry relative="1" as="geometry">
            <mxPoint x="605" y="635" as="targetPoint" />
          </mxGeometry>
        </mxCell>
        <mxCell id="o0BFgWEYsugh6mhAWSTL-38" value="4.1: display()" style="html=1;verticalAlign=bottom;endArrow=block;curved=0;rounded=0;entryX=0;entryY=0;entryDx=0;entryDy=5;" edge="1" target="o0BFgWEYsugh6mhAWSTL-37" parent="1" source="o0BFgWEYsugh6mhAWSTL-12">
          <mxGeometry relative="1" as="geometry">
            <mxPoint x="605" y="565" as="sourcePoint" />
          </mxGeometry>
        </mxCell>
        <mxCell id="o0BFgWEYsugh6mhAWSTL-41" value="4.2: display()" style="html=1;verticalAlign=bottom;endArrow=block;curved=0;rounded=0;entryX=0;entryY=0;entryDx=0;entryDy=5;" edge="1" target="o0BFgWEYsugh6mhAWSTL-40" parent="1" source="o0BFgWEYsugh6mhAWSTL-12">
          <mxGeometry relative="1" as="geometry">
            <mxPoint x="925" y="625" as="sourcePoint" />
            <mxPoint as="offset" />
          </mxGeometry>
        </mxCell>
        <mxCell id="o0BFgWEYsugh6mhAWSTL-42" value="void" style="html=1;verticalAlign=bottom;endArrow=open;dashed=1;endSize=8;curved=0;rounded=0;exitX=0;exitY=1;exitDx=0;exitDy=-5;" edge="1" source="o0BFgWEYsugh6mhAWSTL-40" parent="1" target="o0BFgWEYsugh6mhAWSTL-12">
          <mxGeometry relative="1" as="geometry">
            <mxPoint x="925" y="695" as="targetPoint" />
          </mxGeometry>
        </mxCell>
        <mxCell id="o0BFgWEYsugh6mhAWSTL-45" value="5.2: isAvailableForLoan: boolean" style="html=1;verticalAlign=bottom;endArrow=open;dashed=1;endSize=8;curved=0;rounded=0;exitX=0;exitY=1;exitDx=0;exitDy=-5;" edge="1" source="o0BFgWEYsugh6mhAWSTL-43" parent="1" target="o0BFgWEYsugh6mhAWSTL-12">
          <mxGeometry x="-0.0009" relative="1" as="geometry">
            <mxPoint x="605" y="755" as="targetPoint" />
            <mxPoint as="offset" />
          </mxGeometry>
        </mxCell>
        <mxCell id="o0BFgWEYsugh6mhAWSTL-44" value="5.1: checkAvailableForLoan()" style="html=1;verticalAlign=bottom;endArrow=block;curved=0;rounded=0;entryX=0;entryY=0;entryDx=0;entryDy=5;" edge="1" target="o0BFgWEYsugh6mhAWSTL-43" parent="1" source="o0BFgWEYsugh6mhAWSTL-12">
          <mxGeometry relative="1" as="geometry">
            <mxPoint x="605" y="685" as="sourcePoint" />
          </mxGeometry>
        </mxCell>
        <mxCell id="o0BFgWEYsugh6mhAWSTL-47" value="throw new Exception(&quot;해당 책은 대출 불가능합니다.&quot;)" style="html=1;align=left;spacingLeft=2;endArrow=block;rounded=0;edgeStyle=orthogonalEdgeStyle;curved=0;rounded=0;entryX=1;entryY=0;entryDx=0;entryDy=5;entryPerimeter=0;" edge="1" target="o0BFgWEYsugh6mhAWSTL-46" parent="1">
          <mxGeometry x="0.0063" relative="1" as="geometry">
            <mxPoint x="365" y="760" as="sourcePoint" />
            <Array as="points">
              <mxPoint x="400" y="760" />
              <mxPoint x="400" y="785" />
            </Array>
            <mxPoint as="offset" />
          </mxGeometry>
        </mxCell>
        <mxCell id="o0BFgWEYsugh6mhAWSTL-48" value="" style="group;dropTarget=0;" vertex="1" connectable="0" parent="1">
          <mxGeometry x="220" y="740" width="480" height="100" as="geometry" />
        </mxCell>
        <mxCell id="o0BFgWEYsugh6mhAWSTL-49" value="alt" style="shape=umlFrame;whiteSpace=wrap;html=1;pointerEvents=0;" vertex="1" parent="o0BFgWEYsugh6mhAWSTL-48">
          <mxGeometry width="479.99999999999994" height="100" as="geometry" />
        </mxCell>
        <mxCell id="o0BFgWEYsugh6mhAWSTL-50" value="[!isAvailableForLoan]" style="text;html=1;align=center;verticalAlign=middle;resizable=0;points=[];autosize=1;strokeColor=none;fillColor=none;" vertex="1" parent="o0BFgWEYsugh6mhAWSTL-48">
          <mxGeometry x="-11.162790697674419" y="34.99857142857143" width="140" height="30" as="geometry" />
        </mxCell>
        <mxCell id="o0BFgWEYsugh6mhAWSTL-52" value="5.3: checkAvailableForLoan()" style="html=1;verticalAlign=bottom;endArrow=block;curved=0;rounded=0;entryX=0;entryY=0;entryDx=0;entryDy=5;" edge="1" target="o0BFgWEYsugh6mhAWSTL-51" parent="1" source="o0BFgWEYsugh6mhAWSTL-12">
          <mxGeometry relative="1" as="geometry">
            <mxPoint x="925" y="865" as="sourcePoint" />
          </mxGeometry>
        </mxCell>
        <mxCell id="o0BFgWEYsugh6mhAWSTL-53" value="5.4: isAvailableForLoan: boolean" style="html=1;verticalAlign=bottom;endArrow=open;dashed=1;endSize=8;curved=0;rounded=0;exitX=0;exitY=1;exitDx=0;exitDy=-5;" edge="1" source="o0BFgWEYsugh6mhAWSTL-51" parent="1" target="o0BFgWEYsugh6mhAWSTL-12">
          <mxGeometry relative="1" as="geometry">
            <mxPoint x="925" y="935" as="targetPoint" />
          </mxGeometry>
        </mxCell>
        <mxCell id="o0BFgWEYsugh6mhAWSTL-55" value="throw new Exception(&quot;해당 이용자는 대출 불가능합니다.&quot;)" style="html=1;align=left;spacingLeft=2;endArrow=block;rounded=0;edgeStyle=orthogonalEdgeStyle;curved=0;rounded=0;entryX=1;entryY=0;entryDx=0;entryDy=5;entryPerimeter=0;" edge="1" target="o0BFgWEYsugh6mhAWSTL-54" parent="1">
          <mxGeometry x="0.0063" relative="1" as="geometry">
            <mxPoint x="365" y="940" as="sourcePoint" />
            <Array as="points">
              <mxPoint x="400" y="940" />
              <mxPoint x="400" y="965" />
            </Array>
            <mxPoint as="offset" />
          </mxGeometry>
        </mxCell>
        <mxCell id="o0BFgWEYsugh6mhAWSTL-56" value="" style="group;dropTarget=0;" vertex="1" connectable="0" parent="1">
          <mxGeometry x="220" y="920" width="480" height="100" as="geometry" />
        </mxCell>
        <mxCell id="o0BFgWEYsugh6mhAWSTL-57" value="alt" style="shape=umlFrame;whiteSpace=wrap;html=1;pointerEvents=0;" vertex="1" parent="o0BFgWEYsugh6mhAWSTL-56">
          <mxGeometry width="479.99999999999994" height="100" as="geometry" />
        </mxCell>
        <mxCell id="o0BFgWEYsugh6mhAWSTL-58" value="[!isAvailableForLoan]" style="text;html=1;align=center;verticalAlign=middle;resizable=0;points=[];autosize=1;strokeColor=none;fillColor=none;" vertex="1" parent="o0BFgWEYsugh6mhAWSTL-56">
          <mxGeometry x="-11.162790697674419" y="34.99857142857143" width="140" height="30" as="geometry" />
        </mxCell>
        <mxCell id="o0BFgWEYsugh6mhAWSTL-59" value="6.1: Loan(book: Book, borrower: Borrower)" style="html=1;verticalAlign=bottom;labelBackgroundColor=none;endArrow=open;endFill=0;dashed=1;rounded=0;" edge="1" parent="1" source="o0BFgWEYsugh6mhAWSTL-12">
          <mxGeometry x="0.0002" width="160" relative="1" as="geometry">
            <mxPoint x="430" y="1070" as="sourcePoint" />
            <mxPoint x="1110" y="1040" as="targetPoint" />
            <mxPoint as="offset" />
          </mxGeometry>
        </mxCell>
        <mxCell id="o0BFgWEYsugh6mhAWSTL-60" value="&lt;u&gt;loan: Loan&lt;/u&gt;" style="shape=umlLifeline;perimeter=lifelinePerimeter;whiteSpace=wrap;html=1;container=1;dropTarget=0;collapsible=0;recursiveResize=0;outlineConnect=0;portConstraint=eastwest;newEdgeStyle={&quot;curved&quot;:0,&quot;rounded&quot;:0};" vertex="1" parent="1">
          <mxGeometry x="1110" y="1020" width="100" height="620" as="geometry" />
        </mxCell>
        <mxCell id="o0BFgWEYsugh6mhAWSTL-74" value="" style="html=1;points=[[0,0,0,0,5],[0,1,0,0,-5],[1,0,0,0,5],[1,1,0,0,-5]];perimeter=orthogonalPerimeter;outlineConnect=0;targetShapes=umlLifeline;portConstraint=eastwest;newEdgeStyle={&quot;curved&quot;:0,&quot;rounded&quot;:0};" vertex="1" parent="o0BFgWEYsugh6mhAWSTL-60">
          <mxGeometry x="45" y="60" width="10" height="100" as="geometry" />
        </mxCell>
        <mxCell id="o0BFgWEYsugh6mhAWSTL-75" value="" style="html=1;points=[[0,0,0,0,5],[0,1,0,0,-5],[1,0,0,0,5],[1,1,0,0,-5]];perimeter=orthogonalPerimeter;outlineConnect=0;targetShapes=umlLifeline;portConstraint=eastwest;newEdgeStyle={&quot;curved&quot;:0,&quot;rounded&quot;:0};" vertex="1" parent="o0BFgWEYsugh6mhAWSTL-60">
          <mxGeometry x="45" y="180" width="10" height="100" as="geometry" />
        </mxCell>
        <mxCell id="o0BFgWEYsugh6mhAWSTL-79" value="" style="html=1;align=left;spacingLeft=2;endArrow=block;rounded=0;edgeStyle=orthogonalEdgeStyle;curved=0;rounded=0;entryX=1;entryY=0;entryDx=0;entryDy=5;entryPerimeter=0;exitX=1;exitY=1;exitDx=0;exitDy=-5;exitPerimeter=0;" edge="1" parent="o0BFgWEYsugh6mhAWSTL-60" source="o0BFgWEYsugh6mhAWSTL-74" target="o0BFgWEYsugh6mhAWSTL-75">
          <mxGeometry relative="1" as="geometry">
            <mxPoint x="-60" y="310" as="sourcePoint" />
            <Array as="points">
              <mxPoint x="80" y="155" />
              <mxPoint x="80" y="185" />
            </Array>
            <mxPoint x="-55" y="335" as="targetPoint" />
          </mxGeometry>
        </mxCell>
        <mxCell id="o0BFgWEYsugh6mhAWSTL-80" value="" style="html=1;points=[[0,0,0,0,5],[0,1,0,0,-5],[1,0,0,0,5],[1,1,0,0,-5]];perimeter=orthogonalPerimeter;outlineConnect=0;targetShapes=umlLifeline;portConstraint=eastwest;newEdgeStyle={&quot;curved&quot;:0,&quot;rounded&quot;:0};" vertex="1" parent="o0BFgWEYsugh6mhAWSTL-60">
          <mxGeometry x="45" y="300" width="10" height="20" as="geometry" />
        </mxCell>
        <mxCell id="o0BFgWEYsugh6mhAWSTL-81" value="7.1: saveLoanDate()" style="html=1;align=right;spacingLeft=2;endArrow=block;rounded=0;edgeStyle=orthogonalEdgeStyle;curved=0;rounded=0;exitX=1;exitY=1;exitDx=0;exitDy=-5;exitPerimeter=0;entryX=0;entryY=0;entryDx=0;entryDy=5;entryPerimeter=0;" edge="1" target="o0BFgWEYsugh6mhAWSTL-80" parent="o0BFgWEYsugh6mhAWSTL-60" source="o0BFgWEYsugh6mhAWSTL-75">
          <mxGeometry x="0.4286" relative="1" as="geometry">
            <mxPoint x="50" y="280" as="sourcePoint" />
            <Array as="points">
              <mxPoint x="60" y="275" />
              <mxPoint x="60" y="290" />
              <mxPoint x="20" y="290" />
              <mxPoint x="20" y="305" />
            </Array>
            <mxPoint as="offset" />
          </mxGeometry>
        </mxCell>
        <mxCell id="o0BFgWEYsugh6mhAWSTL-82" value="" style="html=1;points=[[0,0,0,0,5],[0,1,0,0,-5],[1,0,0,0,5],[1,1,0,0,-5]];perimeter=orthogonalPerimeter;outlineConnect=0;targetShapes=umlLifeline;portConstraint=eastwest;newEdgeStyle={&quot;curved&quot;:0,&quot;rounded&quot;:0};align=right;" vertex="1" parent="o0BFgWEYsugh6mhAWSTL-60">
          <mxGeometry x="45" y="340" width="10" height="80" as="geometry" />
        </mxCell>
        <mxCell id="o0BFgWEYsugh6mhAWSTL-83" value="7.2: saveReturnDueDate()" style="html=1;align=right;spacingLeft=2;endArrow=block;rounded=0;edgeStyle=orthogonalEdgeStyle;curved=0;rounded=0;exitX=0;exitY=1;exitDx=0;exitDy=-5;exitPerimeter=0;entryX=0;entryY=0;entryDx=0;entryDy=5;entryPerimeter=0;" edge="1" target="o0BFgWEYsugh6mhAWSTL-82" parent="o0BFgWEYsugh6mhAWSTL-60" source="o0BFgWEYsugh6mhAWSTL-80">
          <mxGeometry relative="1" as="geometry">
            <mxPoint x="50" y="320" as="sourcePoint" />
            <Array as="points">
              <mxPoint x="20" y="315" />
              <mxPoint x="20" y="345" />
            </Array>
          </mxGeometry>
        </mxCell>
        <mxCell id="o0BFgWEYsugh6mhAWSTL-86" value="7.3: calculateReturnDueDate()" style="html=1;align=right;spacingLeft=2;endArrow=block;rounded=0;edgeStyle=orthogonalEdgeStyle;curved=0;rounded=0;entryX=0;entryY=0;entryDx=0;entryDy=5;entryPerimeter=0;" edge="1" target="o0BFgWEYsugh6mhAWSTL-87" parent="o0BFgWEYsugh6mhAWSTL-60" source="o0BFgWEYsugh6mhAWSTL-82">
          <mxGeometry x="-0.0022" relative="1" as="geometry">
            <mxPoint x="40" y="350" as="sourcePoint" />
            <Array as="points">
              <mxPoint x="15" y="360" />
              <mxPoint x="15" y="385" />
            </Array>
            <mxPoint as="offset" />
          </mxGeometry>
        </mxCell>
        <mxCell id="o0BFgWEYsugh6mhAWSTL-87" value="" style="html=1;points=[[0,0,0,0,5],[0,1,0,0,-5],[1,0,0,0,5],[1,1,0,0,-5]];perimeter=orthogonalPerimeter;outlineConnect=0;targetShapes=umlLifeline;portConstraint=eastwest;newEdgeStyle={&quot;curved&quot;:0,&quot;rounded&quot;:0};align=right;" vertex="1" parent="o0BFgWEYsugh6mhAWSTL-60">
          <mxGeometry x="40" y="380" width="10" height="25" as="geometry" />
        </mxCell>
        <mxCell id="o0BFgWEYsugh6mhAWSTL-92" value="" style="html=1;points=[[0,0,0,0,5],[0,1,0,0,-5],[1,0,0,0,5],[1,1,0,0,-5]];perimeter=orthogonalPerimeter;outlineConnect=0;targetShapes=umlLifeline;portConstraint=eastwest;newEdgeStyle={&quot;curved&quot;:0,&quot;rounded&quot;:0};" vertex="1" parent="o0BFgWEYsugh6mhAWSTL-60">
          <mxGeometry x="45" y="440" width="10" height="40" as="geometry" />
        </mxCell>
        <mxCell id="o0BFgWEYsugh6mhAWSTL-93" value="" style="html=1;points=[[0,0,0,0,5],[0,1,0,0,-5],[1,0,0,0,5],[1,1,0,0,-5]];perimeter=orthogonalPerimeter;outlineConnect=0;targetShapes=umlLifeline;portConstraint=eastwest;newEdgeStyle={&quot;curved&quot;:0,&quot;rounded&quot;:0};" vertex="1" parent="o0BFgWEYsugh6mhAWSTL-60">
          <mxGeometry x="45" y="500" width="10" height="40" as="geometry" />
        </mxCell>
        <mxCell id="o0BFgWEYsugh6mhAWSTL-63" value="void" style="html=1;verticalAlign=bottom;endArrow=open;dashed=1;endSize=8;curved=0;rounded=0;exitX=1;exitY=1;exitDx=0;exitDy=-5;entryX=0;entryY=1;entryDx=0;entryDy=-5;entryPerimeter=0;" edge="1" source="o0BFgWEYsugh6mhAWSTL-61" parent="1" target="o0BFgWEYsugh6mhAWSTL-74">
          <mxGeometry relative="1" as="geometry">
            <mxPoint x="755" y="1175" as="targetPoint" />
          </mxGeometry>
        </mxCell>
        <mxCell id="o0BFgWEYsugh6mhAWSTL-62" value="6.2: linkLoan(loan: Loan)" style="html=1;verticalAlign=bottom;endArrow=block;curved=0;rounded=0;entryX=1;entryY=0;entryDx=0;entryDy=5;exitX=0;exitY=0;exitDx=0;exitDy=5;exitPerimeter=0;" edge="1" target="o0BFgWEYsugh6mhAWSTL-61" parent="1" source="o0BFgWEYsugh6mhAWSTL-74">
          <mxGeometry relative="1" as="geometry">
            <mxPoint x="755" y="1105" as="sourcePoint" />
          </mxGeometry>
        </mxCell>
        <mxCell id="o0BFgWEYsugh6mhAWSTL-70" value="6.4: linkLoan(loan: Loan)" style="html=1;verticalAlign=bottom;endArrow=block;curved=0;rounded=0;entryX=1;entryY=0;entryDx=0;entryDy=5;exitX=0;exitY=0;exitDx=0;exitDy=5;exitPerimeter=0;" edge="1" target="o0BFgWEYsugh6mhAWSTL-69" parent="1" source="o0BFgWEYsugh6mhAWSTL-75">
          <mxGeometry relative="1" as="geometry">
            <mxPoint x="1075" y="1205" as="sourcePoint" />
          </mxGeometry>
        </mxCell>
        <mxCell id="o0BFgWEYsugh6mhAWSTL-71" value="void" style="html=1;verticalAlign=bottom;endArrow=open;dashed=1;endSize=8;curved=0;rounded=0;exitX=1;exitY=1;exitDx=0;exitDy=-5;entryX=0;entryY=1;entryDx=0;entryDy=-5;entryPerimeter=0;" edge="1" source="o0BFgWEYsugh6mhAWSTL-69" parent="1" target="o0BFgWEYsugh6mhAWSTL-75">
          <mxGeometry x="-0.0004" relative="1" as="geometry">
            <mxPoint x="1075" y="1275" as="targetPoint" />
            <mxPoint as="offset" />
          </mxGeometry>
        </mxCell>
        <mxCell id="o0BFgWEYsugh6mhAWSTL-88" value="&lt;u&gt;loanCollection: {Loan}&lt;/u&gt;" style="shape=umlLifeline;perimeter=lifelinePerimeter;whiteSpace=wrap;html=1;container=1;dropTarget=0;collapsible=0;recursiveResize=0;outlineConnect=0;portConstraint=eastwest;newEdgeStyle={&quot;curved&quot;:0,&quot;rounded&quot;:0};" vertex="1" parent="1">
          <mxGeometry x="1270" y="40" width="100" height="1600" as="geometry" />
        </mxCell>
        <mxCell id="o0BFgWEYsugh6mhAWSTL-89" value="" style="html=1;points=[[0,0,0,0,5],[0,1,0,0,-5],[1,0,0,0,5],[1,1,0,0,-5]];perimeter=orthogonalPerimeter;outlineConnect=0;targetShapes=umlLifeline;portConstraint=eastwest;newEdgeStyle={&quot;curved&quot;:0,&quot;rounded&quot;:0};" vertex="1" parent="o0BFgWEYsugh6mhAWSTL-88">
          <mxGeometry x="45" y="1420" width="10" height="40" as="geometry" />
        </mxCell>
        <mxCell id="o0BFgWEYsugh6mhAWSTL-90" value="8.1: add(loan: Loan)" style="html=1;verticalAlign=bottom;endArrow=block;curved=0;rounded=0;entryX=0;entryY=0;entryDx=0;entryDy=5;exitX=1;exitY=0;exitDx=0;exitDy=5;exitPerimeter=0;" edge="1" target="o0BFgWEYsugh6mhAWSTL-89" parent="1" source="o0BFgWEYsugh6mhAWSTL-92">
          <mxGeometry relative="1" as="geometry">
            <mxPoint x="1230" y="1490" as="sourcePoint" />
          </mxGeometry>
        </mxCell>
        <mxCell id="o0BFgWEYsugh6mhAWSTL-91" value="8.2: isAdded: boolean" style="html=1;verticalAlign=bottom;endArrow=open;dashed=1;endSize=8;curved=0;rounded=0;exitX=0;exitY=1;exitDx=0;exitDy=-5;entryX=1;entryY=1;entryDx=0;entryDy=-5;entryPerimeter=0;" edge="1" source="o0BFgWEYsugh6mhAWSTL-89" parent="1" target="o0BFgWEYsugh6mhAWSTL-92">
          <mxGeometry relative="1" as="geometry">
            <mxPoint x="1246" y="1535" as="targetPoint" />
          </mxGeometry>
        </mxCell>
        <mxCell id="o0BFgWEYsugh6mhAWSTL-94" value="9: display()" style="html=1;verticalAlign=bottom;endArrow=block;curved=0;rounded=0;entryX=0;entryY=0;entryDx=0;entryDy=5;" edge="1" target="o0BFgWEYsugh6mhAWSTL-93" parent="1" source="o0BFgWEYsugh6mhAWSTL-12">
          <mxGeometry relative="1" as="geometry">
            <mxPoint x="1085" y="1525" as="sourcePoint" />
          </mxGeometry>
        </mxCell>
        <mxCell id="o0BFgWEYsugh6mhAWSTL-95" value="void" style="html=1;verticalAlign=bottom;endArrow=open;dashed=1;endSize=8;curved=0;rounded=0;exitX=0;exitY=1;exitDx=0;exitDy=-5;" edge="1" source="o0BFgWEYsugh6mhAWSTL-93" parent="1" target="o0BFgWEYsugh6mhAWSTL-12">
          <mxGeometry relative="1" as="geometry">
            <mxPoint x="1085" y="1595" as="targetPoint" />
          </mxGeometry>
        </mxCell>
      </root>
    </mxGraphModel>
  </diagram>
</mxfile>
